<svg width="501" height="101" viewBox="0 0 501 101" fill="none" xmlns="http://www.w3.org/2000/svg">
<path d="M84.1667 36.2859C84.1667 39.1721 83.4069 41.8786 82.0762 44.2209C81.5502 45.147 80.9342 46.0147 80.2419 46.8105C80.2329 46.824 80.2194 46.8375 80.2059 46.8509L79.7249 47.3859C79.7249 47.3859 79.7204 47.3859 79.7204 47.3904L69.6408 58.5759L49.6481 80.7671H38.3277L64.3178 51.9267L69.6408 46.0192L70.7243 44.8144C70.9221 44.6255 71.1065 44.4277 71.2863 44.2209C71.3852 44.1085 71.4796 43.9916 71.5695 43.8747C72.8328 42.2697 73.5836 40.2466 73.5836 38.0482C73.5836 37.2749 73.4892 36.5286 73.3139 35.8093C73.0441 34.6854 72.5676 33.6423 71.9337 32.7162C71.3133 31.8081 70.5355 31.0123 69.6408 30.3739C68.1347 29.2904 66.3005 28.643 64.3133 28.6116H64.3178L20.1603 28.6071C18.254 28.162 16.8334 26.4491 16.8334 24.4035C16.8334 22.3579 18.254 20.645 20.1603 20.2H68.0808C68.6068 20.2 69.1283 20.2269 69.6408 20.2719C70.2882 20.3348 70.9266 20.4382 71.5515 20.5776C74.4783 21.216 77.1038 22.6546 79.1944 24.6553C80.3947 25.8017 81.4153 27.1324 82.2155 28.6071C82.6202 29.3444 82.9618 30.1132 83.2451 30.9179C83.7936 32.451 84.1083 34.0964 84.1577 35.8093C84.1622 35.9667 84.1667 36.124 84.1667 36.2859Z" fill="black"/>
<path d="M76.8093 80.9816C80.8726 80.9816 84.1665 77.6876 84.1665 73.6243C84.1665 69.561 80.8726 66.2671 76.8093 66.2671C72.746 66.2671 69.452 69.561 69.452 73.6243C69.452 77.6876 72.746 80.9816 76.8093 80.9816Z" fill="#0069FF"/>
<path d="M64.2348 39.8241C64.2348 40.8401 63.8527 41.7707 63.2278 42.4811C63.1738 42.5395 63.1199 42.6025 63.0614 42.6609L61.6587 44.2209L59.739 46.3519L57.7654 48.5459L28.7316 80.7672H17.4157L50.3428 44.2209H19.8075C18.0901 43.65 16.8538 42.0315 16.8538 40.1253C16.8538 37.7425 18.7869 35.8093 21.1697 35.8093H60.2291C62.4455 35.8093 64.2393 37.6076 64.2393 39.8241H64.2348Z" fill="black"/>
<path fill-rule="evenodd" clip-rule="evenodd" d="M93.2308 3.88462H7.76923C5.62382 3.88462 3.88462 5.62382 3.88462 7.76923V93.2308C3.88462 95.3762 5.62382 97.1154 7.76923 97.1154H93.2308C95.3762 97.1154 97.1154 95.3762 97.1154 93.2308V7.76923C97.1154 5.62382 95.3762 3.88462 93.2308 3.88462ZM7.76923 0C3.4784 0 0 3.4784 0 7.76923V93.2308C0 97.5216 3.4784 101 7.76923 101H93.2308C97.5216 101 101 97.5216 101 93.2308V7.76923C101 3.4784 97.5216 0 93.2308 0H7.76923Z" fill="black"/>
<path d="M147.068 85.5V15.6818H174.614C179.886 15.6818 184.386 16.625 188.114 18.5114C191.864 20.375 194.716 23.0227 196.67 26.4545C198.648 29.8636 199.636 33.875 199.636 38.4886C199.636 43.125 198.636 47.1136 196.636 50.4545C194.636 53.7727 191.739 56.3182 187.943 58.0909C184.17 59.8636 179.602 60.75 174.239 60.75H155.795V48.8864H171.852C174.67 48.8864 177.011 48.5 178.875 47.7273C180.739 46.9545 182.125 45.7955 183.034 44.25C183.966 42.7045 184.432 40.7841 184.432 38.4886C184.432 36.1705 183.966 34.2159 183.034 32.625C182.125 31.0341 180.727 29.8295 178.841 29.0114C176.977 28.1705 174.625 27.75 171.784 27.75H161.83V85.5H147.068ZM184.773 53.7273L202.125 85.5H185.83L168.852 53.7273H184.773ZM210.068 85.5V15.6818H257.114V27.8523H224.83V44.4886H254.693V56.6591H224.83V73.3295H257.25V85.5H210.068ZM281.463 15.6818L298.338 68.7273H298.986L315.895 15.6818H332.259L308.19 85.5H289.168L265.065 15.6818H281.463ZM399.06 15.6818V85.5H386.31L355.935 41.5568H355.423V85.5H340.662V15.6818H353.616L383.753 59.5909H384.366V15.6818H399.06ZM426.017 15.6818V85.5H411.256V15.6818H426.017ZM452.003 15.6818L466.082 39.4773H466.628L480.776 15.6818H497.446L476.139 50.5909L497.923 85.5H480.946L466.628 61.6705H466.082L451.764 85.5H434.855L456.707 50.5909L435.264 15.6818H452.003Z" fill="black"/>
</svg>
